<svg xmlns="http://www.w3.org/2000/svg" viewBox="0 0 1200 900" role="img" aria-label="Accent tile mosaic">
  <defs>
    <linearGradient id="bg" x1="0" y1="0" x2="1" y2="1">
      <stop offset="0%" stop-color="#f8fafc"/>
      <stop offset="100%" stop-color="#e2e8f0"/>
    </linearGradient>
    <linearGradient id="tileA" x1="0" y1="0" x2="1" y2="1">
      <stop offset="0%" stop-color="#0f766e"/>
      <stop offset="100%" stop-color="#14b8a6"/>
    </linearGradient>
    <linearGradient id="tileB" x1="0" y1="0" x2="1" y2="1">
      <stop offset="0%" stop-color="#334155"/>
      <stop offset="100%" stop-color="#0f172a"/>
    </linearGradient>
    <linearGradient id="tileC" x1="0" y1="0" x2="1" y2="1">
      <stop offset="0%" stop-color="#f59e0b"/>
      <stop offset="100%" stop-color="#b45309"/>
    </linearGradient>
  </defs>
  <rect width="1200" height="900" fill="url(#bg)"/>
  <g opacity="0.97">
    <rect x="120" y="90" width="280" height="280" rx="22" fill="url(#tileA)"/>
    <rect x="430" y="90" width="280" height="280" rx="22" fill="url(#tileB)"/>
    <rect x="740" y="90" width="280" height="280" rx="22" fill="url(#tileA)"/>

    <rect x="120" y="400" width="280" height="280" rx="22" fill="url(#tileB)"/>
    <rect x="430" y="400" width="280" height="280" rx="22" fill="url(#tileC)"/>
    <rect x="740" y="400" width="280" height="280" rx="22" fill="url(#tileB)"/>
  </g>
  <g fill="none" stroke="rgba(255,255,255,.35)" stroke-width="10">
    <rect x="136" y="106" width="248" height="248" rx="14"/>
    <rect x="446" y="106" width="248" height="248" rx="14"/>
    <rect x="756" y="106" width="248" height="248" rx="14"/>
    <rect x="136" y="416" width="248" height="248" rx="14"/>
    <rect x="446" y="416" width="248" height="248" rx="14"/>
    <rect x="756" y="416" width="248" height="248" rx="14"/>
  </g>
</svg>
